# xmcd
#
# Track frame offsets: 
#        150
#        14839
#        43161
#        63197
#        81436
#        120235
#        146301
#        160650
#        181431
#        205385
#
# Disc length: 3122 seconds
#
# Revision: 0
# Processed by: cddbd v1.5.2PL0 Copyright (c) Steve Scherf et al.
# Submitted via: ExactAudioCopy v0.99pb4
#
DISCID=860c300a
DTITLE=Various Artist - No.1 R&B Hits Volume 1 Disc 2
DYEAR=2003
DGENRE=R&B
TTITLE0=Driza Bone - Real Love
TTITLE1=Today - Why You Get Funky On Me [Original 12" Mix]
TTITLE2=Bell Biv Devoe - Poison
TTITLE3=Teddy Riley - Is It Good To You [12" Mix]
TTITLE4=Guy - Her
TTITLE5=Johnny Gill - Rub You The Right Way
TTITLE6=Shai - If I Ever Fall In Love
TTITLE7=Ready For The World - Yo That's A Lot A Body
TTITLE8=Aaron Hall - Don't Be Afraid
TTITLE9=Guy - Do Me Right
EXTD=
EXTT0=
EXTT1=
EXTT2=
EXTT3=
EXTT4=
EXTT5=
EXTT6=
EXTT7=
EXTT8=
EXTT9=
PLAYORDER=
